<svg width="230" height="48" viewBox="0 0 230 48" fill="none" xmlns="http://www.w3.org/2000/svg">
<g clip-path="url(#clip0_31715_10911)">
<path d="M23.25 0.796875V1.59375H24H24.75V1.00312C24.75 0.684375 24.7781 0.328125 24.8062 0.20625C24.8625 -1.19209e-07 24.8531 -1.19209e-07 24.0562 -1.19209e-07H23.25V0.796875Z" fill="#232323"/>
<path d="M26.4001 0.42168C26.2595 1.3498 26.2501 1.66855 26.372 1.71543C26.4376 1.74355 26.7751 1.79043 27.1126 1.82793L27.7314 1.89355L27.8345 1.29355C28.0126 0.27168 28.0407 0.318555 27.1876 0.224805L26.4376 0.131055L26.4001 0.42168Z" fill="#232323"/>
<path d="M20.5317 0.25293C20.3536 0.281055 20.1661 0.32793 20.1286 0.374805C20.0817 0.412305 20.1005 0.768555 20.1661 1.17168L20.2786 1.89355L20.8036 1.82793C21.8067 1.70605 21.7598 1.75293 21.6942 1.04043C21.6661 0.70293 21.6286 0.36543 21.6005 0.299805C21.5723 0.187305 21.2348 0.17793 20.5317 0.25293Z" fill="#232323"/>
<path d="M17.6531 0.87168C17.2781 0.974805 16.9688 1.10605 16.9688 1.1623C16.9688 1.21855 17.0531 1.56543 17.1656 1.93105L17.3625 2.59668L18.0281 2.40918C18.4031 2.30605 18.7219 2.2123 18.7406 2.19355C18.7969 2.1373 18.45 0.656055 18.3844 0.66543C18.3562 0.674805 18.0187 0.768555 17.6531 0.87168Z" fill="#232323"/>
<path d="M29.541 0.87207C29.4191 1.19082 29.2129 2.15645 29.2597 2.19395C29.2785 2.2127 29.5972 2.31582 29.9722 2.41895L30.6472 2.60645L30.8816 1.84707C31.0129 1.4252 31.1066 1.07832 31.0972 1.06895C31.0879 1.06895 30.7504 0.975195 30.3472 0.862695L29.616 0.66582L29.541 0.87207Z" fill="#232323"/>
<path d="M14.6716 1.90291C14.3154 2.06229 13.9966 2.20291 13.9779 2.22166C13.9404 2.24979 14.3716 3.31854 14.5216 3.54354C14.5779 3.63729 14.7279 3.60916 15.1966 3.41229C15.5248 3.27166 15.8248 3.13104 15.8623 3.10291C15.9279 3.04666 15.4779 1.74354 15.3654 1.65916C15.3466 1.64041 15.0373 1.75291 14.6716 1.90291Z" fill="#232323"/>
<path d="M32.4094 2.18451C32.0344 3.10326 32.0251 3.07514 32.7563 3.38451C33.1126 3.53451 33.4126 3.64701 33.4219 3.63764C33.4407 3.61889 33.6001 3.30014 33.7876 2.92514L34.1344 2.25014L33.6844 2.05326C33.4313 1.95014 33.1032 1.80014 32.9344 1.73451L32.6344 1.61264L32.4094 2.18451Z" fill="#232323"/>
<path d="M11.8404 3.3375C11.5216 3.51562 11.231 3.70312 11.1935 3.75937C11.1373 3.85312 11.8685 5.0625 11.9904 5.0625C12.0373 5.0625 13.1154 4.43437 13.1998 4.35938C13.2373 4.32187 12.5248 3 12.4685 3C12.4404 3 12.1591 3.15 11.8404 3.3375Z" fill="#232323"/>
<path d="M35.2875 3.4404C35.1469 3.68415 34.9782 3.99352 34.9032 4.10602C34.8282 4.2279 34.7813 4.3404 34.8 4.34977C35.1094 4.58415 36.0188 5.06227 36.0844 5.02477C36.1313 4.99665 36.3375 4.70602 36.5344 4.3779C36.8625 3.8529 36.8907 3.76852 36.7594 3.68415C36.675 3.63727 36.3657 3.45915 36.075 3.2904L35.5407 2.9904L35.2875 3.4404Z" fill="#232323"/>
<path d="M23.1469 3.69375C21.5438 5.1 20.1281 7.18125 19.5469 9C18.6 11.9438 19.7438 15.3375 22.6688 18.2625L23.2594 18.8531L23.2313 19.8469L23.2031 20.85L22.7344 20.2125C21.8813 19.05 20.3719 18.0281 18.7969 17.5406C17.5312 17.1469 16.9219 17.0531 15.1688 16.9969L13.4156 16.9406L13.1344 17.2313L12.8438 17.5125V18.9094C12.8438 22.7156 13.9969 25.425 16.2844 27.0094C17.8594 28.0969 20.2313 28.7813 22.4344 28.7813C22.9313 28.7813 23.175 28.8188 23.2125 28.9031C23.2313 28.9688 23.2406 30.0281 23.2313 31.2656L23.2031 33.5063L22.7438 32.8781C22.2281 32.1656 21.15 31.275 20.25 30.8063C19.5656 30.4406 18.0938 29.9719 17.1094 29.7938C16.7531 29.7281 15.7406 29.6719 14.8781 29.6719H13.2938L13.0688 29.9344C12.8531 30.1875 12.8438 30.2531 12.8438 31.575C12.8438 35.2781 13.9969 38.0719 16.1625 39.6C17.7844 40.7531 19.5188 41.2875 22.0312 41.4188L23.2031 41.4844L23.2313 43.1531L23.25 44.8125H24H24.75L24.7688 43.1438L24.7969 41.4844L25.9219 41.4281C26.5406 41.4 27.2156 41.3438 27.4219 41.3063C30.8438 40.7063 32.85 39.3563 34.0781 36.8156C34.8094 35.3063 35.1562 33.5719 35.1562 31.4531C35.1562 30.2625 35.1469 30.1875 34.9313 29.9344L34.7063 29.6719H33.1219C31.4719 29.6813 30.75 29.7656 29.4469 30.15C27.6281 30.6656 26.1844 31.6125 25.2563 32.8875L24.7969 33.5063L24.7688 31.2656C24.7594 30.0281 24.7688 28.9688 24.7875 28.9031C24.825 28.8188 25.0688 28.7813 25.5656 28.7813C27.0375 28.7813 28.9031 28.4063 30.1875 27.8531C31.9781 27.0844 33.1781 25.95 34.0312 24.2344C34.8 22.6781 35.1562 20.9719 35.1562 18.7875V17.5125L34.8844 17.2406L34.6125 16.9688H33.3563C31.7531 16.9688 30.6656 17.1094 29.4938 17.4563C27.4125 18.075 26.2781 18.8531 24.9656 20.5875L24.7594 20.8594V19.8375L24.75 18.825L25.6219 17.9063C26.9531 16.5 27.8906 15.0281 28.3969 13.5281C29.4188 10.4813 28.2656 7.05938 25.1906 4.05C24.0938 2.98125 23.9906 2.9625 23.1469 3.69375ZM24.6188 5.74688C25.35 6.525 25.9688 7.39688 26.4188 8.30625C26.925 9.3 27.0938 9.91875 27.1594 10.9219C27.2625 12.4875 26.6438 14.1188 25.3125 15.825L24.6094 16.7344L24.0375 16.7625L23.4563 16.7906L23.0625 16.3406C22.0594 15.1969 21.1594 13.5188 20.8969 12.2625C20.6344 11.0531 20.9625 9.3375 21.6938 8.025C22.2563 7.0125 23.7563 5.15625 24 5.15625C24.0375 5.15625 24.3188 5.41875 24.6188 5.74688ZM16.8188 18.7125C19.3781 19.1156 21.1406 20.2688 22.0594 22.1438C22.6781 23.4 23.0625 25.125 23.0625 26.6438V27.1875H22.3406C20.7844 27.1875 18.9281 26.7188 17.6625 26.0156C15.7313 24.9469 14.5969 22.7156 14.4656 19.7531L14.4094 18.5625H15.1406C15.5438 18.5625 16.2938 18.6281 16.8188 18.7125ZM33.5625 19.3313C33.5625 20.2688 33.3563 21.5719 33.0844 22.4063C32.4844 24.2531 31.5094 25.4344 29.9344 26.2313C28.8844 26.775 26.9813 27.1875 25.5938 27.1875H24.9375V26.4563C24.9375 24.1688 25.7625 21.8531 27.0281 20.5875C28.2469 19.3688 30.4219 18.6094 32.7469 18.5719L33.5625 18.5625V19.3313ZM16.8188 31.3688C19.7906 31.8375 21.675 33.3375 22.5281 35.9063C22.7812 36.6656 22.9688 37.7813 23.0344 38.8406L23.0906 39.8719L21.8813 39.8156C20.4 39.75 19.1344 39.45 18.0094 38.8875C15.8438 37.8188 14.6063 35.5406 14.4656 32.4094L14.4094 31.2188H15.1406C15.5438 31.2188 16.2938 31.2844 16.8188 31.3688ZM33.5344 32.3625C33.4406 34.4344 32.7281 36.45 31.6875 37.6125C30.4969 38.9438 28.0781 39.8438 25.65 39.8438H24.9094L24.9656 38.7375C25.1438 35.5875 26.325 33.3375 28.3688 32.2781C29.6531 31.6031 31.1438 31.2563 32.8031 31.2281L33.5906 31.2188L33.5344 32.3625Z" fill="#00AD0C"/>
<path d="M1.7625 4.91269C1.26562 5.04395 0.76875 5.40019 0.46875 5.82207C0.01875 6.44082 0 6.69394 0 11.2502C0 16.0033 0.009375 16.0502 0.61875 16.7627C1.05 17.2783 1.59375 17.5221 2.46563 17.5877L3.1875 17.6533L3.20625 29.5221L3.23438 41.3908L3.46875 41.8408C3.9 42.7033 4.62188 43.1439 5.57812 43.1533C6.5625 43.1533 7.3125 42.6752 7.74375 41.7658L7.96875 41.2971V29.4752V17.6533L8.6625 17.5971C9.7875 17.5127 10.5188 17.0814 10.9313 16.2471C11.1 15.9189 11.1094 15.5908 11.1375 11.3439C11.1562 8.31582 11.1375 6.68457 11.0625 6.4502C10.9219 5.95332 10.2094 5.20332 9.675 4.99707C9.01875 4.74394 8.29688 4.79082 7.70625 5.10957L7.21875 5.37207L6.8625 5.17519C6.0375 4.71582 4.99688 4.72519 4.30313 5.19394L3.98438 5.40957L3.65625 5.19394C3.34688 4.98769 2.6625 4.78144 2.34375 4.79082C2.26875 4.79082 2.00625 4.84707 1.7625 4.91269ZM2.98125 6.71269C3.1875 6.94707 3.1875 6.98457 3.1875 9.52519C3.1875 12.6096 3.225 12.7502 4.03125 12.7502C4.17188 12.7502 4.3875 12.6658 4.50938 12.5721L4.73438 12.3939L4.78125 9.61894C4.82812 6.90957 4.82812 6.84394 5.03438 6.6377C5.325 6.35645 5.82188 6.35645 6.14063 6.65644L6.375 6.87207V9.43144C6.375 11.9814 6.4125 12.3002 6.70313 12.5908C6.95625 12.8439 7.54688 12.7971 7.77188 12.5064C7.95938 12.2627 7.96875 12.1408 7.96875 9.68457C7.96875 6.80644 7.99688 6.66582 8.56875 6.46894C8.83125 6.38457 8.94375 6.39394 9.16875 6.50644C9.31875 6.58144 9.46875 6.72207 9.50625 6.79707C9.53438 6.88144 9.5625 8.87832 9.5625 11.2408V15.5346L9.31875 15.7596C9.09375 15.9658 8.99063 15.9846 7.96875 16.0127C6.92813 16.0408 6.85313 16.0596 6.6375 16.2846L6.42188 16.5189L6.39375 28.8189L6.375 41.1283L6.14063 41.3439C5.82188 41.6439 5.325 41.6439 5.03438 41.3627L4.82812 41.1471L4.8 28.8471C4.78125 16.9033 4.77188 16.5377 4.59375 16.3127C4.425 16.0877 4.35938 16.0783 3.24375 16.0314C2.175 15.9846 2.04375 15.9658 1.85625 15.7689L1.64063 15.5533L1.6125 11.2783C1.59375 7.50957 1.60313 6.98457 1.73438 6.77832C2.03438 6.31894 2.59688 6.29082 2.98125 6.71269Z" fill="#232323"/>
<path d="M41.4754 4.92168C37.8191 5.71856 35.766 10.9123 37.416 15.1967C37.8848 16.4061 38.916 17.7936 39.7223 18.2904L40.0316 18.4873V29.8873V41.2967L40.2566 41.7654C40.5098 42.3186 41.0816 42.8623 41.5879 43.0404C42.066 43.1998 42.9004 43.1904 43.3223 43.0123C43.8098 42.7967 44.2691 42.3561 44.5316 41.8404L44.766 41.3904L44.7941 29.9436L44.8129 18.4967L45.3754 18.0561C47.466 16.4342 48.4973 12.7873 47.7098 9.78731C47.0348 7.20918 45.3473 5.3623 43.266 4.92168C42.4785 4.75293 42.2254 4.75293 41.4754 4.92168ZM43.6316 6.68418C46.5848 8.04356 47.3535 13.3873 45.0004 16.2092C44.7473 16.5092 44.2785 16.9311 43.941 17.1373C43.6129 17.3436 43.3129 17.5873 43.2754 17.6717C43.2473 17.7561 43.2191 23.0248 43.2191 29.3717C43.2191 38.4936 43.191 40.9686 43.0973 41.1561C42.9191 41.5029 42.5348 41.6623 42.1504 41.5311C41.9816 41.4748 41.7941 41.3342 41.7285 41.2217C41.6535 41.0717 41.616 38.0061 41.5973 29.3623L41.5785 17.6998L41.2785 17.4561C41.1191 17.3154 40.7723 17.0529 40.5098 16.8748C39.6191 16.2561 38.9629 15.1592 38.6066 13.6873C38.3348 12.5436 38.4004 10.7717 38.7473 9.69356C39.591 7.11543 41.7191 5.81231 43.6316 6.68418Z" fill="#232323"/>
<path d="M11.4939 43.5655L11.0908 44.203L11.7564 44.5968C12.1221 44.8124 12.4502 44.9624 12.4877 44.9249C12.5814 44.8218 13.2283 43.6593 13.2002 43.6405C13.1064 43.5468 12.0377 42.9374 11.9721 42.9374C11.9346 42.9374 11.7189 43.2187 11.4939 43.5655Z" fill="#232323"/>
<path d="M35.3909 43.2752C35.0815 43.4627 34.819 43.6221 34.8002 43.6409C34.7815 43.6596 35.3909 44.8502 35.494 44.9909C35.5315 45.0377 36.7315 44.3534 36.7971 44.2409C36.8627 44.1471 36.1221 42.9377 36.0096 42.9377C35.9815 42.9471 35.7002 43.0971 35.3909 43.2752Z" fill="#232323"/>
<path d="M14.2219 45.0471L13.875 45.7502L14.0812 45.8346C14.2031 45.8814 14.5406 46.0221 14.8312 46.1533L15.3656 46.3877L15.5906 45.8064C15.9562 44.8971 15.975 44.9252 15.2531 44.6158C14.8969 44.4658 14.5969 44.3439 14.5875 44.3439C14.5781 44.3439 14.4187 44.6627 14.2219 45.0471Z" fill="#232323"/>
<path d="M32.7464 44.6156C32.4277 44.7563 32.137 44.8875 32.1183 44.9156C32.0714 44.9625 32.5777 46.3594 32.6433 46.3594C32.812 46.3406 34.0308 45.7781 34.0308 45.7125C34.0308 45.5719 33.4495 44.3438 33.3839 44.3531C33.3558 44.3531 33.0652 44.475 32.7464 44.6156Z" fill="#232323"/>
<path d="M29.9532 45.6001C29.597 45.6939 29.2782 45.797 29.2595 45.8158C29.2407 45.8251 29.297 46.1814 29.3907 46.5939C29.522 47.1845 29.597 47.3439 29.7001 47.297C29.7751 47.2689 30.1126 47.1751 30.4407 47.1001C31.1251 46.922 31.1251 46.9126 30.8251 46.022L30.6095 45.4126L29.9532 45.6001Z" fill="#232323"/>
<path d="M17.2971 45.5813C17.0252 46.3407 16.9034 46.8938 16.9971 46.9313C17.2315 47.0157 18.4127 47.3438 18.4221 47.3157C18.469 47.2594 18.7502 46.0219 18.7502 45.9094C18.7502 45.8344 18.5252 45.7219 18.1877 45.6282C17.5221 45.4407 17.3534 45.4313 17.2971 45.5813Z" fill="#232323"/>
<path d="M20.1655 46.7062C19.9874 47.728 19.9593 47.6812 20.8124 47.7749L21.5624 47.8687L21.5999 47.578C21.7405 46.6499 21.7499 46.3312 21.628 46.2843C21.5624 46.2562 21.2249 46.2093 20.8874 46.1718L20.2686 46.1062L20.1655 46.7062Z" fill="#232323"/>
<path d="M26.7844 46.2186C26.5312 46.2654 26.3156 46.3123 26.2969 46.3311C26.2781 46.3498 26.2875 46.6967 26.3156 47.0998L26.3719 47.8311L27.0844 47.7748C27.4781 47.7373 27.8344 47.6717 27.8719 47.6342C27.9187 47.5873 27.9 47.2311 27.8437 46.8373C27.7125 46.0404 27.75 46.0592 26.7844 46.2186Z" fill="#232323"/>
<path d="M23.2309 47.1281C23.2121 47.5312 23.2121 47.8875 23.2309 47.925C23.2496 47.9719 23.5965 48 24.009 48H24.7496V47.2031V46.4062H24.009H23.2684L23.2309 47.1281Z" fill="#232323"/>
</g>
<path d="M73.872 20.12C73.44 19.288 72.84 18.664 72.072 18.248C71.304 17.816 70.416 17.6 69.408 17.6C68.304 17.6 67.32 17.848 66.456 18.344C65.592 18.84 64.912 19.544 64.416 20.456C63.936 21.368 63.696 22.424 63.696 23.624C63.696 24.824 63.936 25.888 64.416 26.816C64.912 27.728 65.592 28.432 66.456 28.928C67.32 29.424 68.304 29.672 69.408 29.672C70.896 29.672 72.104 29.256 73.032 28.424C73.96 27.592 74.528 26.464 74.736 25.04H68.472V22.856H77.664V24.992C77.488 26.288 77.024 27.48 76.272 28.568C75.536 29.656 74.568 30.528 73.368 31.184C72.184 31.824 70.864 32.144 69.408 32.144C67.84 32.144 66.408 31.784 65.112 31.064C63.816 30.328 62.784 29.312 62.016 28.016C61.264 26.72 60.888 25.256 60.888 23.624C60.888 21.992 61.264 20.528 62.016 19.232C62.784 17.936 63.816 16.928 65.112 16.208C66.424 15.472 67.856 15.104 69.408 15.104C71.184 15.104 72.76 15.544 74.136 16.424C75.528 17.288 76.536 18.52 77.16 20.12H73.872ZM83.0985 20.696C83.4985 20.024 84.0265 19.504 84.6825 19.136C85.3545 18.752 86.1465 18.56 87.0585 18.56V21.392H86.3625C85.2905 21.392 84.4745 21.664 83.9145 22.208C83.3705 22.752 83.0985 23.696 83.0985 25.04V32H80.3625V18.776H83.0985V20.696ZM101.693 25.064C101.693 25.56 101.661 26.008 101.597 26.408H91.4934C91.5734 27.464 91.9654 28.312 92.6694 28.952C93.3734 29.592 94.2374 29.912 95.2614 29.912C96.7334 29.912 97.7734 29.296 98.3814 28.064H101.333C100.933 29.28 100.205 30.28 99.1494 31.064C98.1094 31.832 96.8134 32.216 95.2614 32.216C93.9974 32.216 92.8614 31.936 91.8534 31.376C90.8614 30.8 90.0774 30 89.5014 28.976C88.9414 27.936 88.6614 26.736 88.6614 25.376C88.6614 24.016 88.9334 22.824 89.4774 21.8C90.0374 20.76 90.8134 19.96 91.8054 19.4C92.8134 18.84 93.9654 18.56 95.2614 18.56C96.5094 18.56 97.6214 18.832 98.5974 19.376C99.5734 19.92 100.333 20.688 100.877 21.68C101.421 22.656 101.693 23.784 101.693 25.064ZM98.8374 24.2C98.8214 23.192 98.4614 22.384 97.7574 21.776C97.0534 21.168 96.1814 20.864 95.1414 20.864C94.1974 20.864 93.3894 21.168 92.7174 21.776C92.0454 22.368 91.6454 23.176 91.5174 24.2H98.8374ZM116.506 25.064C116.506 25.56 116.474 26.008 116.41 26.408H106.306C106.386 27.464 106.778 28.312 107.482 28.952C108.186 29.592 109.05 29.912 110.074 29.912C111.546 29.912 112.586 29.296 113.194 28.064H116.146C115.746 29.28 115.018 30.28 113.962 31.064C112.922 31.832 111.626 32.216 110.074 32.216C108.81 32.216 107.674 31.936 106.666 31.376C105.674 30.8 104.89 30 104.314 28.976C103.754 27.936 103.474 26.736 103.474 25.376C103.474 24.016 103.746 22.824 104.29 21.8C104.85 20.76 105.626 19.96 106.618 19.4C107.626 18.84 108.778 18.56 110.074 18.56C111.322 18.56 112.434 18.832 113.41 19.376C114.386 19.92 115.146 20.688 115.69 21.68C116.234 22.656 116.506 23.784 116.506 25.064ZM113.65 24.2C113.634 23.192 113.274 22.384 112.57 21.776C111.866 21.168 110.994 20.864 109.954 20.864C109.01 20.864 108.202 21.168 107.53 21.776C106.858 22.368 106.458 23.176 106.33 24.2H113.65ZM125.87 18.56C126.91 18.56 127.838 18.776 128.654 19.208C129.486 19.64 130.134 20.28 130.598 21.128C131.062 21.976 131.294 23 131.294 24.2V32H128.582V24.608C128.582 23.424 128.286 22.52 127.694 21.896C127.102 21.256 126.294 20.936 125.27 20.936C124.246 20.936 123.43 21.256 122.822 21.896C122.23 22.52 121.934 23.424 121.934 24.608V32H119.198V18.776H121.934V20.288C122.382 19.744 122.95 19.32 123.638 19.016C124.342 18.712 125.086 18.56 125.87 18.56Z" fill="#00AD0C"/>
<path d="M153.907 32L151.843 29.936C151.043 30.736 150.171 31.336 149.227 31.736C148.283 32.12 147.227 32.312 146.059 32.312C144.875 32.312 143.827 32.104 142.915 31.688C142.003 31.272 141.299 30.68 140.803 29.912C140.307 29.128 140.059 28.224 140.059 27.2C140.059 26.048 140.387 25.024 141.043 24.128C141.699 23.216 142.675 22.496 143.971 21.968C143.507 21.408 143.179 20.888 142.987 20.408C142.795 19.912 142.699 19.368 142.699 18.776C142.699 18.04 142.883 17.384 143.251 16.808C143.635 16.232 144.179 15.776 144.883 15.44C145.587 15.104 146.403 14.936 147.331 14.936C148.275 14.936 149.075 15.12 149.731 15.488C150.403 15.84 150.899 16.328 151.219 16.952C151.555 17.576 151.691 18.272 151.627 19.04H148.891C148.907 18.448 148.763 17.992 148.459 17.672C148.155 17.336 147.739 17.168 147.211 17.168C146.683 17.168 146.251 17.328 145.915 17.648C145.595 17.952 145.435 18.328 145.435 18.776C145.435 19.208 145.555 19.64 145.795 20.072C146.051 20.488 146.491 21.032 147.115 21.704L151.531 26.096L153.235 23.288H156.187L154.027 26.984L153.427 27.968L157.483 32H153.907ZM146.059 29.984C147.563 29.984 148.891 29.368 150.043 28.136L145.627 23.696C143.739 24.448 142.795 25.584 142.795 27.104C142.795 27.92 143.099 28.608 143.707 29.168C144.315 29.712 145.099 29.984 146.059 29.984ZM176.287 15.32V17.552H171.847V32H169.111V17.552H164.647V15.32H176.287ZM178.146 25.328C178.146 24 178.418 22.824 178.962 21.8C179.522 20.776 180.274 19.984 181.218 19.424C182.178 18.848 183.234 18.56 184.386 18.56C185.426 18.56 186.33 18.768 187.098 19.184C187.882 19.584 188.506 20.088 188.97 20.696V18.776H191.73V32H188.97V30.032C188.506 30.656 187.874 31.176 187.074 31.592C186.274 32.008 185.362 32.216 184.338 32.216C183.202 32.216 182.162 31.928 181.218 31.352C180.274 30.76 179.522 29.944 178.962 28.904C178.418 27.848 178.146 26.656 178.146 25.328ZM188.97 25.376C188.97 24.464 188.778 23.672 188.394 23C188.026 22.328 187.538 21.816 186.93 21.464C186.322 21.112 185.666 20.936 184.962 20.936C184.258 20.936 183.602 21.112 182.994 21.464C182.386 21.8 181.89 22.304 181.506 22.976C181.138 23.632 180.954 24.416 180.954 25.328C180.954 26.24 181.138 27.04 181.506 27.728C181.89 28.416 182.386 28.944 182.994 29.312C183.618 29.664 184.274 29.84 184.962 29.84C185.666 29.84 186.322 29.664 186.93 29.312C187.538 28.96 188.026 28.448 188.394 27.776C188.778 27.088 188.97 26.288 188.97 25.376ZM200.123 32.216C199.083 32.216 198.147 32.032 197.315 31.664C196.499 31.28 195.851 30.768 195.371 30.128C194.891 29.472 194.635 28.744 194.603 27.944H197.435C197.483 28.504 197.747 28.976 198.227 29.36C198.723 29.728 199.339 29.912 200.075 29.912C200.843 29.912 201.435 29.768 201.851 29.48C202.283 29.176 202.499 28.792 202.499 28.328C202.499 27.832 202.259 27.464 201.779 27.224C201.315 26.984 200.571 26.72 199.547 26.432C198.555 26.16 197.747 25.896 197.123 25.64C196.499 25.384 195.955 24.992 195.491 24.464C195.043 23.936 194.819 23.24 194.819 22.376C194.819 21.672 195.027 21.032 195.443 20.456C195.859 19.864 196.451 19.4 197.219 19.064C198.003 18.728 198.899 18.56 199.907 18.56C201.411 18.56 202.619 18.944 203.531 19.712C204.459 20.464 204.955 21.496 205.019 22.808H202.283C202.235 22.216 201.995 21.744 201.563 21.392C201.131 21.04 200.547 20.864 199.811 20.864C199.091 20.864 198.539 21 198.155 21.272C197.771 21.544 197.579 21.904 197.579 22.352C197.579 22.704 197.707 23 197.963 23.24C198.219 23.48 198.531 23.672 198.899 23.816C199.267 23.944 199.811 24.112 200.531 24.32C201.491 24.576 202.275 24.84 202.883 25.112C203.507 25.368 204.043 25.752 204.491 26.264C204.939 26.776 205.171 27.456 205.187 28.304C205.187 29.056 204.979 29.728 204.563 30.32C204.147 30.912 203.555 31.376 202.787 31.712C202.035 32.048 201.147 32.216 200.123 32.216ZM211.336 21.008V28.328C211.336 28.824 211.448 29.184 211.672 29.408C211.912 29.616 212.312 29.72 212.872 29.72H214.552V32H212.392C211.16 32 210.216 31.712 209.56 31.136C208.904 30.56 208.576 29.624 208.576 28.328V21.008H207.016V18.776H208.576V15.488H211.336V18.776H214.552V21.008H211.336ZM228.977 18.776L220.865 38.216H218.033L220.721 31.784L215.513 18.776H218.561L222.281 28.856L226.145 18.776H228.977Z" fill="#232323"/>
<defs>
<clipPath id="clip0_31715_10911">
<rect width="48" height="48" fill="white"/>
</clipPath>
</defs>
</svg>
