<svg width="664" height="852" viewBox="0 0 664 852" fill="none" xmlns="http://www.w3.org/2000/svg">
<rect width="664" height="852" fill="#F7F7F7"/>
<path d="M86.24 169.6C85.2267 167.733 83.76 166.32 81.84 165.36C79.9733 164.347 77.76 163.84 75.2 163.84C70.7733 163.84 67.2267 165.307 64.56 168.24C61.8933 171.12 60.56 174.987 60.56 179.84C60.56 185.013 61.9467 189.067 64.72 192C67.5467 194.88 71.4133 196.32 76.32 196.32C79.68 196.32 82.5067 195.467 84.8 193.76C87.1467 192.053 88.8533 189.6 89.92 186.4H72.56V176.32H102.32V189.04C101.307 192.453 99.5733 195.627 97.12 198.56C94.72 201.493 91.6533 203.867 87.92 205.68C84.1867 207.493 79.9733 208.4 75.28 208.4C69.7333 208.4 64.7733 207.2 60.4 204.8C56.08 202.347 52.6933 198.96 50.24 194.64C47.84 190.32 46.64 185.387 46.64 179.84C46.64 174.293 47.84 169.36 50.24 165.04C52.6933 160.667 56.08 157.28 60.4 154.88C64.72 152.427 69.6533 151.2 75.2 151.2C81.92 151.2 87.5733 152.827 92.16 156.08C96.8 159.333 99.8667 163.84 101.36 169.6H86.24ZM123.578 170.8C125.178 168.347 127.178 166.427 129.578 165.04C131.978 163.6 134.644 162.88 137.578 162.88V177.36H133.818C130.404 177.36 127.844 178.107 126.138 179.6C124.431 181.04 123.578 183.6 123.578 187.28V208H109.898V163.36H123.578V170.8ZM186.196 184.96C186.196 186.24 186.116 187.573 185.956 188.96H154.996C155.21 191.733 156.09 193.867 157.636 195.36C159.236 196.8 161.183 197.52 163.476 197.52C166.89 197.52 169.263 196.08 170.596 193.2H185.156C184.41 196.133 183.05 198.773 181.076 201.12C179.156 203.467 176.73 205.307 173.796 206.64C170.863 207.973 167.583 208.64 163.956 208.64C159.583 208.64 155.69 207.707 152.276 205.84C148.863 203.973 146.196 201.307 144.276 197.84C142.356 194.373 141.396 190.32 141.396 185.68C141.396 181.04 142.33 176.987 144.196 173.52C146.116 170.053 148.783 167.387 152.196 165.52C155.61 163.653 159.53 162.72 163.956 162.72C168.276 162.72 172.116 163.627 175.476 165.44C178.836 167.253 181.45 169.84 183.316 173.2C185.236 176.56 186.196 180.48 186.196 184.96ZM172.196 181.36C172.196 179.013 171.396 177.147 169.796 175.76C168.196 174.373 166.196 173.68 163.796 173.68C161.503 173.68 159.556 174.347 157.956 175.68C156.41 177.013 155.45 178.907 155.076 181.36H172.196ZM235.493 184.96C235.493 186.24 235.413 187.573 235.253 188.96H204.293C204.506 191.733 205.386 193.867 206.933 195.36C208.533 196.8 210.48 197.52 212.773 197.52C216.186 197.52 218.56 196.08 219.893 193.2H234.453C233.706 196.133 232.346 198.773 230.373 201.12C228.453 203.467 226.026 205.307 223.093 206.64C220.16 207.973 216.88 208.64 213.253 208.64C208.88 208.64 204.986 207.707 201.573 205.84C198.16 203.973 195.493 201.307 193.573 197.84C191.653 194.373 190.693 190.32 190.693 185.68C190.693 181.04 191.626 176.987 193.493 173.52C195.413 170.053 198.08 167.387 201.493 165.52C204.906 163.653 208.826 162.72 213.253 162.72C217.573 162.72 221.413 163.627 224.773 165.44C228.133 167.253 230.746 169.84 232.613 173.2C234.533 176.56 235.493 180.48 235.493 184.96ZM221.493 181.36C221.493 179.013 220.693 177.147 219.093 175.76C217.493 174.373 215.493 173.68 213.093 173.68C210.8 173.68 208.853 174.347 207.253 175.68C205.706 177.013 204.746 178.907 204.373 181.36H221.493ZM269.91 162.88C275.137 162.88 279.297 164.587 282.39 168C285.537 171.36 287.11 176 287.11 181.92V208H273.51V183.76C273.51 180.773 272.737 178.453 271.19 176.8C269.643 175.147 267.563 174.32 264.95 174.32C262.337 174.32 260.257 175.147 258.71 176.8C257.163 178.453 256.39 180.773 256.39 183.76V208H242.71V163.36H256.39V169.28C257.777 167.307 259.643 165.76 261.99 164.64C264.337 163.467 266.977 162.88 269.91 162.88Z" fill="#00AD0C"/>
<path d="M356.529 208L351.329 202.96C346.156 206.907 339.969 208.88 332.769 208.88C328.449 208.88 324.689 208.187 321.489 206.8C318.289 205.36 315.809 203.36 314.049 200.8C312.343 198.187 311.489 195.147 311.489 191.68C311.489 188.16 312.423 184.987 314.289 182.16C316.209 179.28 319.063 176.933 322.849 175.12C321.463 173.413 320.476 171.787 319.889 170.24C319.303 168.64 319.009 166.907 319.009 165.04C319.009 162.373 319.703 159.947 321.089 157.76C322.476 155.573 324.476 153.867 327.089 152.64C329.756 151.36 332.903 150.72 336.529 150.72C340.209 150.72 343.329 151.387 345.889 152.72C348.449 154.053 350.369 155.84 351.649 158.08C352.929 160.32 353.516 162.773 353.409 165.44H340.529C340.583 164 340.209 162.907 339.409 162.16C338.663 161.36 337.649 160.96 336.369 160.96C335.089 160.96 334.023 161.333 333.169 162.08C332.316 162.827 331.889 163.787 331.889 164.96C331.889 166.08 332.236 167.253 332.929 168.48C333.676 169.707 334.823 171.12 336.369 172.72L350.049 186.08C350.156 185.813 350.289 185.493 350.449 185.12C350.663 184.747 350.876 184.32 351.089 183.84L354.049 178.8H367.729L363.889 185.76C362.449 188.907 360.796 191.893 358.929 194.72L372.449 208H356.529ZM333.409 197.84C336.983 197.84 340.156 196.827 342.929 194.8L330.449 182.72C326.609 184.693 324.689 187.36 324.689 190.72C324.689 192.747 325.463 194.453 327.009 195.84C328.609 197.173 330.743 197.84 333.409 197.84ZM434.751 151.84V162.8H419.871V208H406.191V162.8H391.311V151.84H434.751ZM438.896 185.6C438.896 181.013 439.75 176.987 441.456 173.52C443.216 170.053 445.59 167.387 448.576 165.52C451.563 163.653 454.896 162.72 458.576 162.72C461.723 162.72 464.47 163.36 466.816 164.64C469.216 165.92 471.056 167.6 472.336 169.68V163.36H486.016V208H472.336V201.68C471.003 203.76 469.136 205.44 466.736 206.72C464.39 208 461.643 208.64 458.496 208.64C454.87 208.64 451.563 207.707 448.576 205.84C445.59 203.92 443.216 201.227 441.456 197.76C439.75 194.24 438.896 190.187 438.896 185.6ZM472.336 185.68C472.336 182.267 471.376 179.573 469.456 177.6C467.59 175.627 465.296 174.64 462.576 174.64C459.856 174.64 457.536 175.627 455.616 177.6C453.75 179.52 452.816 182.187 452.816 185.6C452.816 189.013 453.75 191.733 455.616 193.76C457.536 195.733 459.856 196.72 462.576 196.72C465.296 196.72 467.59 195.733 469.456 193.76C471.376 191.787 472.336 189.093 472.336 185.68ZM514.073 208.64C510.18 208.64 506.713 207.973 503.673 206.64C500.633 205.307 498.233 203.493 496.473 201.2C494.713 198.853 493.726 196.24 493.513 193.36H507.033C507.193 194.907 507.913 196.16 509.193 197.12C510.473 198.08 512.046 198.56 513.913 198.56C515.62 198.56 516.926 198.24 517.833 197.6C518.793 196.907 519.273 196.027 519.273 194.96C519.273 193.68 518.606 192.747 517.273 192.16C515.94 191.52 513.78 190.827 510.793 190.08C507.593 189.333 504.926 188.56 502.793 187.76C500.66 186.907 498.82 185.6 497.273 183.84C495.726 182.027 494.953 179.6 494.953 176.56C494.953 174 495.646 171.68 497.033 169.6C498.473 167.467 500.553 165.787 503.273 164.56C506.046 163.333 509.326 162.72 513.113 162.72C518.713 162.72 523.113 164.107 526.313 166.88C529.566 169.653 531.433 173.333 531.913 177.92H519.273C519.06 176.373 518.366 175.147 517.193 174.24C516.073 173.333 514.58 172.88 512.713 172.88C511.113 172.88 509.886 173.2 509.033 173.84C508.18 174.427 507.753 175.253 507.753 176.32C507.753 177.6 508.42 178.56 509.753 179.2C511.14 179.84 513.273 180.48 516.153 181.12C519.46 181.973 522.153 182.827 524.233 183.68C526.313 184.48 528.126 185.813 529.673 187.68C531.273 189.493 532.1 191.947 532.153 195.04C532.153 197.653 531.406 200 529.913 202.08C528.473 204.107 526.366 205.707 523.593 206.88C520.873 208.053 517.7 208.64 514.073 208.64ZM565.403 196.4V208H558.443C553.483 208 549.616 206.8 546.843 204.4C544.069 201.947 542.683 197.973 542.683 192.48V174.72H537.243V163.36H542.683V152.48H556.363V163.36H565.323V174.72H556.363V192.64C556.363 193.973 556.683 194.933 557.323 195.52C557.963 196.107 559.029 196.4 560.523 196.4H565.403ZM618.623 163.36L590.623 229.2H575.903L586.143 206.48L567.982 163.36H583.263L593.583 191.28L603.823 163.36H618.623Z" fill="#232323"/>
<g clip-path="url(#clip0_351_5355)">
<path d="M324.984 318.923V325.846H331.5H338.016V320.715C338.016 317.946 338.26 314.851 338.504 313.792C338.993 312 338.912 312 331.989 312H324.984V318.923Z" fill="#232323"/>
<path d="M352.35 315.665C351.128 323.728 351.047 326.497 352.106 326.905C352.676 327.149 355.608 327.556 358.54 327.882L363.915 328.452L364.811 323.239C366.358 314.362 366.603 314.769 359.191 313.955L352.676 313.14L352.35 315.665Z" fill="#232323"/>
<path d="M301.365 314.199C299.818 314.443 298.189 314.851 297.863 315.258C297.456 315.584 297.619 318.679 298.189 322.181L299.166 328.452L303.727 327.882C312.442 326.823 312.034 327.23 311.464 321.04C311.22 318.108 310.894 315.176 310.65 314.606C310.406 313.629 307.473 313.547 301.365 314.199Z" fill="#232323"/>
<path d="M276.362 319.574C273.104 320.47 270.416 321.611 270.416 322.099C270.416 322.588 271.149 325.601 272.126 328.778L273.837 334.56L279.619 332.931C282.877 332.036 285.646 331.221 285.809 331.058C286.298 330.57 283.284 317.701 282.714 317.783C282.47 317.864 279.538 318.679 276.362 319.574Z" fill="#232323"/>
<path d="M379.634 319.574C378.576 322.344 376.784 330.732 377.191 331.058C377.354 331.221 380.123 332.117 383.381 333.013L389.245 334.642L391.281 328.045C392.421 324.38 393.236 321.366 393.154 321.285C393.073 321.285 390.141 320.47 386.639 319.493L380.286 317.783L379.634 319.574Z" fill="#232323"/>
<path d="M250.462 328.533C247.367 329.918 244.598 331.14 244.435 331.302C244.109 331.547 247.856 340.832 249.159 342.786C249.648 343.601 250.951 343.356 255.023 341.646C257.874 340.424 260.48 339.203 260.806 338.958C261.376 338.47 257.466 327.149 256.489 326.416C256.326 326.253 253.638 327.23 250.462 328.533Z" fill="#232323"/>
<path d="M404.557 330.977C401.299 338.958 401.217 338.714 407.57 341.402C410.665 342.705 413.271 343.682 413.353 343.601C413.516 343.438 414.9 340.669 416.529 337.411L419.543 331.547L415.633 329.837C413.434 328.941 410.584 327.638 409.118 327.067L406.511 326.009L404.557 330.977Z" fill="#232323"/>
<path d="M225.865 340.995C223.096 342.542 220.571 344.171 220.246 344.66C219.757 345.474 226.11 355.98 227.168 355.98C227.576 355.98 236.942 350.524 237.675 349.872C238.001 349.546 231.811 338.062 231.322 338.062C231.078 338.062 228.634 339.366 225.865 340.995Z" fill="#232323"/>
<path d="M429.56 341.89C428.338 344.008 426.872 346.696 426.221 347.673C425.569 348.732 425.162 349.709 425.325 349.791C428.013 351.827 435.913 355.98 436.483 355.655C436.89 355.41 438.682 352.885 440.392 350.035C443.243 345.474 443.487 344.741 442.347 344.008C441.614 343.601 438.926 342.053 436.402 340.587L431.759 337.981L429.56 341.89Z" fill="#232323"/>
<path d="M324.088 344.089C310.161 356.306 297.863 374.387 292.813 390.188C284.588 415.761 294.524 445.245 319.935 470.655L325.066 475.787L324.821 484.42L324.577 493.134L320.505 487.596C313.093 477.497 299.981 468.619 286.298 464.384C275.303 460.963 270.009 460.149 254.779 459.66L239.548 459.172L237.105 461.696L234.58 464.14V476.275C234.58 509.342 244.598 532.88 264.471 546.644C278.153 556.092 298.759 562.037 317.899 562.037C322.215 562.037 324.333 562.363 324.659 563.096C324.821 563.666 324.903 572.869 324.821 583.62L324.577 603.086L320.586 597.629C316.107 591.439 306.741 583.702 298.922 579.629C292.976 576.453 280.189 572.381 271.638 570.833C268.543 570.263 259.747 569.774 252.254 569.774H238.489L236.535 572.055C234.662 574.254 234.58 574.824 234.58 586.308C234.58 618.479 244.598 642.749 263.412 656.025C277.502 666.043 292.569 670.685 314.396 671.825L324.577 672.396L324.821 686.893L324.984 701.309H331.5H338.016L338.179 686.811L338.423 672.396L348.196 671.907C353.572 671.663 359.436 671.174 361.228 670.848C390.955 665.636 408.384 653.907 419.054 631.836C425.406 618.723 428.42 603.656 428.42 585.249C428.42 574.905 428.338 574.254 426.465 572.055L424.511 569.774H410.746C396.412 569.856 390.141 570.589 378.82 573.928C363.019 578.408 350.477 586.634 342.414 597.71L338.423 603.086L338.179 583.62C338.097 572.869 338.179 563.666 338.341 563.096C338.667 562.363 340.785 562.037 345.101 562.037C357.888 562.037 374.096 558.779 385.254 553.974C400.81 547.296 411.235 537.441 418.646 522.536C425.325 509.016 428.42 494.193 428.42 475.216V464.14L426.058 461.778L423.696 459.416H412.782C398.855 459.416 389.408 460.638 379.227 463.651C361.146 469.027 351.291 475.787 339.889 490.854L338.097 493.216V484.338L338.016 475.542L345.59 467.561C357.155 455.344 365.3 442.557 369.698 429.526C378.575 403.056 368.558 373.328 341.844 347.184C332.314 337.9 331.419 337.737 324.088 344.089ZM336.875 361.926C343.228 368.686 348.604 376.26 352.513 384.161C356.911 392.794 358.377 398.169 358.947 406.884C359.843 420.485 354.468 434.657 342.902 449.48L336.794 457.38L331.826 457.624L326.776 457.869L323.355 453.959C314.641 444.023 306.822 429.444 304.542 418.53C302.261 408.024 305.112 393.12 311.464 381.717C316.351 372.921 329.382 356.795 331.5 356.795C331.826 356.795 334.269 359.075 336.875 361.926ZM269.113 474.565C291.347 478.067 306.659 488.085 314.641 504.374C320.016 515.287 323.355 530.273 323.355 543.468V548.191H317.084C303.564 548.191 287.438 544.119 276.443 538.011C259.665 528.726 249.81 509.342 248.67 483.605L248.181 473.262H254.534C258.036 473.262 264.552 473.832 269.113 474.565ZM414.574 479.94C414.574 488.085 412.782 499.406 410.421 506.654C405.208 522.699 396.738 532.961 383.055 539.884C373.933 544.608 357.4 548.191 345.346 548.191H339.645V541.839C339.645 521.966 346.812 501.849 357.807 490.854C368.395 480.266 387.29 473.669 407.488 473.343L414.574 473.262V479.94ZM269.113 584.516C294.931 588.588 311.302 601.62 318.713 623.936C320.912 630.533 322.541 640.225 323.111 649.428L323.6 658.387L313.093 657.898C300.225 657.328 289.23 654.722 279.456 649.835C260.643 640.55 249.892 620.759 248.67 593.556L248.181 583.213H254.534C258.036 583.213 264.552 583.783 269.113 584.516ZM414.33 593.149C413.515 611.149 407.326 628.659 398.285 638.759C387.942 650.324 366.929 658.143 345.834 658.143H339.4L339.889 648.532C341.436 621.166 351.698 601.62 369.454 592.416C380.612 586.552 393.561 583.539 407.977 583.294L414.819 583.213L414.33 593.149Z" fill="#00AD0C"/>
<path d="M138.312 354.677C133.995 355.818 129.679 358.912 127.072 362.578C123.163 367.953 123 370.152 123 409.734C123 451.027 123.081 451.434 128.375 457.624C132.122 462.104 136.846 464.221 144.42 464.791L150.691 465.362L150.854 568.471L151.099 671.581L153.135 675.49C156.881 682.983 163.153 686.811 171.46 686.893C180.012 686.893 186.527 682.739 190.274 674.839L192.229 670.767V568.064V465.362L198.255 464.873C208.029 464.14 214.382 460.393 217.965 453.145C219.431 450.294 219.513 447.444 219.757 410.549C219.92 384.242 219.757 370.07 219.105 368.034C217.884 363.718 211.694 357.202 207.052 355.41C201.35 353.211 195.079 353.619 189.948 356.388L185.713 358.668L182.618 356.958C175.451 352.967 166.41 353.048 160.383 357.121L157.614 358.994L154.764 357.121C152.076 355.329 146.13 353.537 143.361 353.619C142.71 353.619 140.429 354.107 138.312 354.677ZM148.9 370.315C150.691 372.351 150.691 372.677 150.691 394.748C150.691 421.544 151.017 422.766 158.021 422.766C159.243 422.766 161.116 422.033 162.175 421.218L164.13 419.671L164.537 395.563C164.944 372.025 164.944 371.455 166.736 369.663C169.261 367.22 173.578 367.22 176.347 369.826L178.383 371.699V393.934C178.383 416.087 178.709 418.856 181.233 421.381C183.432 423.58 188.563 423.173 190.518 420.648C192.147 418.53 192.229 417.472 192.229 396.133C192.229 371.129 192.473 369.908 197.441 368.197C199.721 367.464 200.699 367.546 202.654 368.523C203.957 369.175 205.26 370.396 205.586 371.048C205.83 371.781 206.074 389.129 206.074 409.653V446.955L203.957 448.91C202.002 450.701 201.106 450.864 192.229 451.109C183.188 451.353 182.537 451.516 180.663 453.47L178.79 455.507L178.546 562.363L178.383 669.301L176.347 671.174C173.578 673.78 169.261 673.78 166.736 671.337L164.944 669.463L164.7 562.607C164.537 458.846 164.456 455.67 162.908 453.715C161.442 451.76 160.872 451.679 151.18 451.271C141.895 450.864 140.755 450.701 139.126 448.991L137.253 447.118L137.009 409.979C136.846 377.238 136.927 372.677 138.067 370.885C140.674 366.894 145.56 366.65 148.9 370.315Z" fill="#232323"/>
<path d="M483.314 354.759C451.55 361.682 433.714 406.802 448.048 444.023C452.12 454.529 461.079 466.583 468.084 470.9L470.771 472.61V571.648V670.767L472.726 674.839C474.925 679.644 479.893 684.368 484.291 685.915C488.445 687.3 495.694 687.219 499.359 685.671C503.594 683.798 507.585 679.97 509.865 675.49L511.901 671.581L512.146 572.136L512.308 472.692L517.195 468.864C535.357 454.774 544.316 423.091 537.475 397.029C531.611 374.631 516.951 358.587 498.87 354.759C492.029 353.293 489.83 353.293 483.314 354.759ZM502.046 370.07C527.702 381.88 534.38 428.304 513.937 452.819C511.738 455.425 507.666 459.09 504.734 460.882C501.883 462.674 499.277 464.791 498.951 465.524C498.707 466.257 498.463 512.03 498.463 567.168C498.463 646.414 498.218 667.916 497.404 669.545C495.856 672.558 492.517 673.943 489.178 672.803C487.712 672.314 486.083 671.092 485.513 670.115C484.861 668.812 484.536 642.179 484.373 567.087L484.21 465.769L481.604 463.651C480.219 462.429 477.206 460.149 474.925 458.602C467.188 453.226 461.487 443.697 458.392 430.91C456.03 420.974 456.6 405.581 459.613 396.214C466.943 373.817 485.431 362.496 502.046 370.07Z" fill="#232323"/>
<path d="M222.852 690.476L219.35 696.015L225.132 699.435C228.309 701.309 231.159 702.612 231.485 702.286C232.299 701.39 237.919 691.291 237.675 691.128C236.86 690.313 227.576 685.019 227.005 685.019C226.68 685.019 224.806 687.463 222.852 690.476Z" fill="#232323"/>
<path d="M430.456 687.952C427.768 689.58 425.488 690.965 425.325 691.128C425.162 691.291 430.456 701.634 431.352 702.856C431.678 703.263 442.103 697.318 442.673 696.34C443.243 695.526 436.809 685.02 435.831 685.02C435.587 685.101 433.144 686.404 430.456 687.952Z" fill="#232323"/>
<path d="M246.553 703.345L243.539 709.453L245.331 710.186C246.39 710.593 249.322 711.815 251.846 712.955L256.489 714.991L258.444 709.942C261.62 702.042 261.783 702.286 255.512 699.598C252.417 698.295 249.81 697.236 249.729 697.236C249.647 697.236 248.263 700.005 246.553 703.345Z" fill="#232323"/>
<path d="M407.488 699.598C404.719 700.82 402.194 701.96 402.031 702.204C401.624 702.612 406.022 714.747 406.592 714.747C408.058 714.584 418.646 709.697 418.646 709.127C418.646 707.906 413.597 697.236 413.027 697.318C412.782 697.318 410.257 698.377 407.488 699.598Z" fill="#232323"/>
<path d="M383.217 708.15C380.122 708.964 377.353 709.86 377.19 710.023C377.027 710.105 377.516 713.2 378.331 716.783C379.471 721.914 380.122 723.299 381.018 722.892C381.67 722.647 384.602 721.833 387.452 721.181C393.398 719.634 393.398 719.552 390.792 711.815L388.919 706.521L383.217 708.15Z" fill="#232323"/>
<path d="M273.267 707.987C270.905 714.584 269.846 719.389 270.66 719.715C272.697 720.448 282.959 723.299 283.04 723.055C283.447 722.566 285.891 711.815 285.891 710.838C285.891 710.186 283.936 709.209 281.004 708.394C275.221 706.765 273.755 706.684 273.267 707.987Z" fill="#232323"/>
<path d="M298.189 717.761C296.641 726.638 296.397 726.231 303.808 727.045L310.324 727.86L310.65 725.335C311.871 717.272 311.953 714.503 310.894 714.095C310.324 713.851 307.392 713.444 304.46 713.118L299.084 712.548L298.189 717.761Z" fill="#232323"/>
<path d="M355.689 713.525C353.49 713.933 351.617 714.34 351.454 714.503C351.291 714.666 351.372 717.679 351.617 721.181L352.105 727.534L358.295 727.045C361.716 726.719 364.811 726.149 365.137 725.824C365.544 725.416 365.381 722.321 364.892 718.901C363.752 711.978 364.078 712.141 355.689 713.525Z" fill="#232323"/>
<path d="M324.821 721.426C324.658 724.928 324.658 728.023 324.821 728.348C324.984 728.756 327.998 729 331.581 729H338.016V722.077V715.154H331.581H325.147L324.821 721.426Z" fill="#232323"/>
</g>
<defs>
<clipPath id="clip0_351_5355">
<rect width="417" height="417" fill="white" transform="translate(123 312)"/>
</clipPath>
</defs>
</svg>
